# Wavefront Obj file
# 
# verts: 66 uv-s: 157
mtllib hospital.mtl

g pCube9
#pivot 0.000000 0.000000 0.000000

v -18.406069 0.054524 7.684212
v -15.792519 0.054524 7.684212
v -18.406069 1.506162 7.684212
v -15.792519 1.506162 7.684212
v -18.406069 1.506162 5.070663
v -15.792519 1.506162 5.070663
v -18.406069 0.054524 5.070663
v -15.792519 0.054524 5.070663
v -15.792519 1.506162 6.658804
v -18.406069 1.506162 6.658804
v -18.406069 0.054524 6.658804
v -15.792519 0.054524 6.658804
v -17.638037 0.054524 6.658804
v -17.638037 0.054524 7.684212
v -16.393942 0.054524 6.658804
v -16.393942 0.054524 7.684212
v -16.393942 0.742332 7.684212
v -17.638037 0.742332 7.684212
v -15.792519 0.648677 5.070663
v -15.792519 0.648677 6.658804
v -17.638037 0.054524 8.342887
v -17.638037 0.742332 8.342887
v -16.393942 0.054524 8.342887
v -16.393942 0.742332 8.342887
v -17.487469 0.054524 8.342887
v -17.490923 0.618261 8.342887
v -16.528774 0.054524 8.342887
v -16.541054 0.618261 8.342887
v -17.487469 0.054524 7.957031
v -17.490923 0.618261 7.957031
v -16.528774 0.054524 7.957031
v -16.541054 0.618261 7.957031
v -15.792519 0.567842 5.070662
v -15.792519 0.556190 6.658804
v -14.474663 0.545457 6.645113
v -14.463973 0.648175 6.658804
v -14.466041 0.548858 5.080739
v -14.463973 0.648175 5.070663
v -14.474663 0.547086 6.486427
v -14.466041 0.547130 5.220660
v -14.613754 0.545457 6.645113
v -14.615484 0.546765 6.485933
v -14.618279 0.547487 5.216519
v -14.620093 0.548858 5.080739
v -14.613054 0.019782 6.639681
v -14.614784 0.021090 6.480502
v -14.473964 0.021411 6.480995
v -14.473964 0.019782 6.639681
v -14.618891 0.021912 5.209747
v -14.466653 0.021554 5.213888
v -14.620705 0.023282 5.073967
v -14.466653 0.023282 5.073967
v -17.554688 1.506162 6.658804
v -17.564116 1.506162 5.070663
v -18.406069 1.867146 6.658804
v -18.406069 1.867146 5.070663
v -17.564116 1.867145 5.070663
v -17.554688 1.867146 6.658804
v -17.569269 1.506162 7.684212
v -17.598757 0.054524 5.070663
v -16.508219 0.054524 5.070663
v -16.384274 1.506162 7.684212
v -17.536858 1.906073 7.697063
v -16.384274 1.906073 7.697063
v -14.462364 0.945507 6.658804
v -14.462364 0.945507 5.070663
# 66 positions

vt 0.815889 0.441245
vt 0.915117 0.439989
vt 0.915117 0.593930
vt 0.815889 0.602863
vt 0.726537 0.441245
vt 0.726537 0.363115
vt 0.726536 0.702637
vt 0.726537 0.602863
vt 0.915117 0.702638
vt 0.915117 0.363115
vt 0.573482 0.329219
vt 0.706691 0.327325
vt 0.706691 0.481266
vt 0.573482 0.558140
vt 0.367168 0.327994
vt 0.367168 0.558140
vt 0.573482 0.218617
vt 0.706691 0.218617
vt 0.706691 0.558140
vt 0.017217 0.091062
vt 0.017217 0.024377
vt 0.110192 0.024377
vt 0.247362 0.212958
vt 0.356739 0.212958
vt 0.356739 0.259853
vt 0.247362 0.259853
vt 0.356739 0.024377
vt 0.251862 0.024377
vt 0.017217 0.101563
vt 0.016975 0.613135
vt 0.116749 0.613002
vt 0.116927 0.746211
vt 0.017153 0.746345
vt 0.356222 0.406368
vt 0.356498 0.612682
vt 0.278368 0.612786
vt 0.263246 0.406492
vt 0.278546 0.745995
vt 0.356676 0.745891
vt 0.136602 0.831753
vt 0.117041 0.831779
vt 0.261145 0.831586
vt 0.278660 0.831563
vt 0.016699 0.406822
vt 0.121576 0.406682
vt 0.791708 0.229906
vt 0.726537 0.229906
vt 0.793220 0.023592
vt 0.726535 0.023592
vt 0.803722 0.229906
vt 0.563053 0.212958
vt 0.563053 0.024377
vt 0.696262 0.024377
vt 0.696263 0.212958
vt 0.563053 0.259853
vt 0.458737 0.763454
vt 0.571445 0.763454
vt 0.571445 0.976051
vt 0.457475 0.976051
vt 0.803722 0.023592
vt 0.915117 0.023592
vt 0.915117 0.229906
vt 0.626022 0.719350
vt 0.697808 0.719500
vt 0.698299 0.841576
vt 0.626509 0.840302
vt 0.609914 0.567674
vt 0.697496 0.567321
vt 0.697834 0.651194
vt 0.610252 0.651546
vt 0.697834 0.991744
vt 0.610252 0.992096
vt 0.609914 0.908224
vt 0.697496 0.907871
vt 0.725906 0.979471
vt 0.725906 0.812930
vt 0.814080 0.812930
vt 0.814080 0.979471
vt 0.697911 0.670367
vt 0.626126 0.670216
vt 0.625637 0.889427
vt 0.697427 0.890702
vt 0.830688 0.832623
vt 0.830688 0.959777
vt 0.867364 0.780334
vt 0.731092 0.780334
vt 0.731092 0.725488
vt 0.867364 0.725488
vt 0.882341 0.832623
vt 0.882341 0.959777
vt 0.980129 0.417882
vt 0.966053 0.416210
vt 0.965984 0.394614
vt 0.963685 0.222393
vt 0.977153 0.201798
vt 0.971016 0.903573
vt 0.969126 0.925195
vt 0.897499 0.918928
vt 0.899389 0.897306
vt 0.961895 0.434669
vt 0.940559 0.594269
vt 0.928279 0.591520
vt 0.967492 0.944148
vt 0.895866 0.937881
vt 0.327044 0.382210
vt 0.307176 0.382427
vt 0.307237 0.364850
vt 0.327044 0.364850
vt 0.960842 0.182571
vt 0.963654 0.203345
vt 0.942140 0.024110
vt 0.953041 0.022644
vt 0.967490 0.761990
vt 0.968540 0.783288
vt 0.895865 0.786787
vt 0.894815 0.765488
vt 0.028787 0.227143
vt 0.235100 0.227144
vt 0.235100 0.399734
vt 0.028787 0.399733
vt 0.405532 0.731165
vt 0.570439 0.730816
vt 0.569900 0.750594
vt 0.405466 0.749459
vt 0.383084 0.578251
vt 0.384853 0.731390
vt 0.589403 0.578251
vt 0.588079 0.730579
vt 0.280086 0.371030
vt 0.280603 0.352028
vt 0.297552 0.351802
vt 0.297552 0.371030
vt 0.969482 0.802636
vt 0.896807 0.806134
vt 0.965549 0.965834
vt 0.893922 0.959567
vt 0.972676 0.884384
vt 0.901049 0.878117
vt 0.970514 0.823692
vt 0.897839 0.827191
vt 0.966639 0.743210
vt 0.893964 0.746709
vt 0.017216 0.212958
vt 0.567533 0.273505
vt 0.567304 0.320400
vt 0.456703 0.319861
vt 0.456932 0.272967
vt 0.250389 0.318857
vt 0.250617 0.271963
vt 0.017467 0.846656
vt 0.431759 0.846202
vt 0.431913 0.986089
vt 0.028952 0.986531
vt 0.030969 0.812397
vt 0.418128 0.810443
vt 0.429522 0.990005
vt 0.031477 0.992014
# 157 texture coordinates

vn 0.000000 0.000000 1.000000
vn 0.000000 0.000000 1.000000
vn 0.000000 0.000000 1.000000
vn 0.000000 0.000000 1.000000
vn 0.000000 1.000000 0.000000
vn 0.000000 1.000000 0.000000
vn 0.000000 1.000000 0.000000
vn 0.000000 1.000000 0.000000
vn 0.001196 -0.019781 -0.999804
vn 0.000000 -0.000002 -1.000000
vn -0.000000 -0.000000 -1.000000
vn 0.000000 -1.000000 0.000000
vn 0.000000 -1.000000 0.000000
vn 0.000000 -1.000000 0.000000
vn 0.000000 -1.000000 0.000000
vn 1.000000 0.000000 0.000000
vn 1.000000 0.000000 0.000000
vn 1.000000 0.000000 0.000000
vn -1.000000 0.000000 0.000000
vn -1.000000 0.000000 0.000000
vn -1.000000 0.000000 0.000000
vn -1.000000 0.000000 0.000000
vn 0.000001 1.000000 -0.000000
vn 0.000001 1.000000 -0.000000
vn 0.000001 1.000000 -0.000000
vn 0.000001 1.000000 -0.000000
vn -1.000000 0.000000 0.000000
vn -1.000000 0.000000 0.000000
vn 0.000000 -1.000000 0.000000
vn 0.000000 -1.000000 0.000000
vn 0.000000 -1.000000 0.000000
vn 0.000000 -1.000000 0.000000
vn 1.000000 0.000000 0.000000
vn 1.000000 0.000000 0.000000
vn 1.000000 0.000000 0.000000
vn 1.000000 0.000000 0.000000
vn 0.000000 -1.000000 0.000000
vn 0.000000 0.000000 1.000000
vn 0.000000 0.000000 1.000000
vn 0.000000 0.000000 1.000000
vn 0.000000 0.000000 1.000000
vn 0.000000 -1.000000 0.000000
vn 0.000000 0.000000 1.000000
vn 0.000000 0.000000 1.000000
vn -1.000000 0.000000 0.000000
vn -1.000000 0.000000 0.000000
vn -1.000000 0.000000 0.000000
vn -1.000000 0.000000 0.000000
vn 0.000000 -1.000000 0.000000
vn 0.000000 -1.000000 0.000000
vn 1.000000 0.000000 0.000000
vn 1.000000 0.000000 0.000000
vn 1.000000 0.000000 0.000000
vn 1.000000 0.000000 0.000000
vn 0.000000 1.000000 0.000000
vn 0.000000 1.000000 0.000000
vn 0.000000 1.000000 0.000000
vn 0.000000 1.000000 0.000000
vn 0.000000 0.000000 1.000000
vn 0.000000 0.000000 1.000000
vn 0.000000 0.000000 1.000000
vn 0.000000 0.000000 1.000000
vn 0.000000 0.000000 1.000000
vn 0.000000 0.000000 1.000000
vn 0.000000 0.000000 1.000000
vn 0.000000 0.000000 1.000000
vn 0.000000 -1.000000 0.000000
vn 0.000000 -1.000000 0.000000
vn 0.999981 0.006127 0.000000
vn 0.999981 0.006127 0.000000
vn 0.999981 0.006127 0.000000
vn 0.999981 0.006127 0.000000
vn 0.000000 1.000000 0.000000
vn 0.000000 1.000000 0.000000
vn 0.000000 1.000000 0.000000
vn 0.000000 1.000000 0.000000
vn -0.999763 -0.021777 0.000000
vn -0.999763 -0.021777 0.000000
vn -0.999763 -0.021777 0.000000
vn -0.999763 -0.021777 0.000000
vn 0.000000 -1.000000 0.000000
vn 0.000000 -1.000000 0.000000
vn 0.000000 -1.000000 0.000000
vn 0.000000 -1.000000 0.000000
vn 0.000000 0.000000 1.000000
vn 0.000000 0.000000 1.000000
vn 1.000000 0.000000 0.000000
vn 1.000000 0.000000 0.000000
vn 0.996071 -0.088557 0.000448
vn 0.998592 -0.053045 -0.000545
vn 0.998919 -0.046448 0.001548
vn 1.000000 0.000000 0.000000
vn 0.002110 -0.108135 0.994134
vn 0.002750 -0.060201 0.998183
vn 0.000000 -0.073263 0.997313
vn 0.001163 -0.999957 -0.009246
vn 0.001163 -0.999956 -0.009246
vn 0.001163 -0.999957 -0.009246
vn 0.001163 -0.999957 -0.009246
vn 0.001940 -0.040006 -0.999198
vn 0.001309 -0.085525 -0.996335
vn 0.000000 -0.044492 -0.999010
vn 0.000378 1.000000 0.000000
vn 0.000378 1.000000 0.000000
vn 0.000378 1.000000 0.000000
vn 0.000378 1.000000 0.000000
vn -0.007445 -0.999964 -0.004132
vn -0.009599 -0.999943 -0.004700
vn -0.000118 -1.000000 -0.000302
vn -0.000118 -1.000000 -0.000302
vn 0.999302 -0.037320 0.001599
vn 0.999278 -0.037985 0.001063
vn -0.001017 -0.999936 -0.011229
vn -0.001017 -0.999936 -0.011229
vn -0.001017 -0.999936 -0.011229
vn -0.001017 -0.999936 -0.011229
vn 0.999936 -0.011344 -0.000140
vn 0.005114 -0.073865 0.997255
vn 0.005114 -0.073865 0.997255
vn -0.012411 -0.999912 -0.004644
vn -0.009199 -0.999925 -0.008116
vn -0.012964 -0.999905 -0.004727
vn -0.016104 -0.999822 -0.009880
vn 0.001188 -0.019643 -0.999806
vn -0.999940 -0.001444 0.010855
vn -0.999940 -0.001444 0.010855
vn -0.999940 -0.001444 0.010855
vn -0.999940 -0.001444 0.010855
vn 0.003479 0.010336 -0.999941
vn 0.003479 0.010336 -0.999941
vn 0.003479 0.010336 -0.999941
vn 0.003479 0.010336 -0.999941
vn 0.999999 0.001330 0.000014
vn 0.999999 0.001330 0.000014
vn 0.000000 -0.010333 0.999947
vn 0.000000 -0.010333 0.999947
vn -0.027218 -0.012848 0.999547
vn -0.027218 -0.012848 0.999547
vn -0.027218 -0.012848 0.999547
vn -0.027218 -0.012848 0.999547
vn -0.999910 0.000991 0.013368
vn -0.999910 0.000991 0.013368
vn -0.999910 0.000991 0.013368
vn -0.999910 0.000991 0.013368
vn 0.000000 0.012884 -0.999917
vn 0.000000 0.012884 -0.999917
vn 0.999999 -0.001165 -0.000014
vn 0.999999 -0.001165 -0.000014
vn 0.000000 1.000000 0.000000
vn 0.000000 1.000000 0.000000
vn -0.000000 0.000000 -1.000000
vn 0.000000 0.000000 -1.000000
vn -1.000000 0.000000 0.000000
vn -1.000000 0.000000 0.000000
vn 0.000000 0.000000 1.000000
vn 0.000000 0.000000 1.000000
vn 0.000000 0.000000 1.000000
vn 0.000000 0.000000 1.000000
vn 0.000000 0.000000 -1.000000
vn 0.000000 0.000000 -1.000000
vn 0.000000 0.000000 -1.000000
vn 0.999982 0.000000 -0.005936
vn 0.999982 0.000000 -0.005936
vn 0.999982 0.000000 -0.005936
vn 0.999982 0.000000 -0.005936
vn 0.000000 1.000000 0.000000
vn 0.000000 1.000000 0.000000
vn 0.000000 0.000000 1.000000
vn 0.000000 -1.000000 0.000000
vn 0.000000 -1.000000 0.000000
vn 0.000000 0.000000 -1.000000
vn 0.000000 0.000000 -1.000000
vn 0.000000 0.000000 1.000000
vn 0.000000 1.000000 0.000000
vn 0.000000 -0.032120 0.999484
vn 0.000000 -0.032120 0.999484
vn 0.000000 -0.032120 0.999484
vn 0.000000 -0.032120 0.999484
vn 0.999985 -0.005411 0.000000
vn 0.999985 -0.005411 0.000000
vn 0.999985 -0.005411 0.000000
vn 0.999985 -0.005411 0.000000
# 182 normals

usemtl lambert2SG
s 1
f 17/1/1 62/2/2 59/3/3 18/4/4
f 17/1/1 16/5/43 2/6/44
f 1/7/85 14/8/86 18/4/4
f 3/9/168 1/7/85 18/4/4 59/3/3
f 4/10/173 62/2/2 17/1/1 2/6/44
s 2
f 53/11/5 59/12/6 62/13/7 9/14/8
f 54/15/149 53/11/5 9/14/8 6/16/150
f 10/17/166 3/18/167 59/12/6 53/11/5
f 9/14/8 62/13/7 4/19/174
s 3
f 33/20/9 8/21/10 61/22/11
f 54/23/151 5/24/159 56/25/160 57/26/161
f 7/27/171 5/24/159 54/23/151 60/28/172
f 60/28/172 54/23/151 61/22/11
f 33/20/9 61/22/11 54/23/151 19/29/124
s 4
f 11/30/12 13/31/13 14/32/14 1/33/15
f 8/34/29 12/35/30 15/36/31 61/37/32
f 14/32/14 13/31/13 15/36/31 16/38/37
f 16/38/37 15/36/31 12/35/30 2/39/42
f 14/32/14 25/40/49 21/41/50
f 27/42/67 16/38/37 23/43/68
f 14/32/14 16/38/37 27/42/67 25/40/49
f 7/44/169 60/45/170 13/31/13 11/30/12
f 61/37/32 15/36/31 13/31/13 60/45/170
s 5
f 34/46/16 2/6/17 12/47/18
f 33/48/87 34/46/16 12/47/18 8/49/88
f 2/6/17 34/46/16 20/50/33 4/10/92
s 6
f 10/51/19 11/52/20 1/53/21 3/54/22
f 5/24/27 7/27/28 11/52/20 10/51/19
f 5/24/27 10/51/19 55/55/153 56/25/154
s 7
f 57/56/23 56/57/24 55/58/25 58/59/26
s 8
f 20/50/33 19/60/34 6/61/35 9/62/36
f 4/10/92 20/50/33 9/62/36
s 9
f 30/63/38 29/64/39 31/65/40 32/66/41
s 10
f 18/67/45 14/68/46 21/69/47 22/70/48
s 11
f 16/71/51 17/72/52 24/73/53 23/74/54
s 12
f 17/75/55 18/76/56 22/77/57 24/78/58
s 13
f 22/70/59 21/69/60 25/79/61 26/80/62
f 23/74/63 24/73/64 28/81/65 27/82/66
f 24/78/64 22/77/59 26/83/62 28/84/65
s 14
f 26/80/69 25/79/70 29/64/71 30/63/72
s 15
f 25/85/73 27/86/74 31/87/75 29/88/76
s 16
f 27/82/77 28/81/78 32/66/79 31/65/80
s 17
f 28/84/81 26/83/82 30/89/83 32/90/84
s 18
f 36/91/89 35/92/90 39/93/91
f 36/91/89 39/93/91 40/94/111 38/95/112
f 39/96/91 35/97/90 48/98/133 47/99/134
s 19
f 36/91/93 41/100/94 35/92/95
f 20/101/118 34/102/119 41/100/94 36/91/93
f 35/97/95 41/103/94 45/104/135 48/98/136
s 20
f 45/105/96 46/106/97 47/107/98 48/108/99
s 21
f 44/109/100 38/95/101 37/110/102
f 33/111/9 19/112/124 38/95/101 44/109/100
f 44/113/100 37/114/102 52/115/145 51/116/146
s 22
f 19/117/103 20/118/104 36/119/105 38/120/106
s 23
f 42/121/107 43/122/108 40/123/109 39/124/110
f 34/125/120 42/121/107 41/126/121
f 34/125/120 33/127/122 43/122/108 42/121/107
f 44/128/123 43/122/108 33/127/122
s 24
f 50/129/113 49/130/114 51/131/115 52/132/116
s 25
f 38/95/112 40/94/111 37/110/117
f 37/114/117 40/133/111 50/134/147 52/115/148
s 26
f 41/103/125 42/135/126 46/136/127 45/104/128
s 27
f 42/137/129 39/96/130 47/99/131 46/138/132
s 28
f 40/133/137 43/139/138 49/140/139 50/134/140
s 29
f 43/141/141 44/113/142 51/116/143 49/142/144
s 30
f 19/29/124 54/23/151 6/143/152
s 31
f 55/144/155 10/145/156 53/146/157 58/147/158
s 32
f 53/146/162 54/148/163 57/149/164 58/147/165
s 33
f 59/150/175 62/151/176 64/152/177 63/153/178
s 34
f 36/154/179 38/155/180 66/156/181 65/157/182

# 70 faces
